<svg xmlns="http://www.w3.org/2000/svg" height="40" width="40"><path d="M6.917 36.417q-.709 0-1.188-.459-.479-.458-.479-1.166v-8.834q0-1.083.771-1.854.771-.771 1.854-.771h.875V16q0-1.083.771-1.854.771-.771 1.854-.771h7.292v-2.583q-.792-.542-1.229-1.209Q17 8.917 17 7.958q0-.625.229-1.187.229-.563.646-.979L20 3.625l2.083 2.167q.459.416.709.979.25.562.25 1.187 0 .959-.459 1.625-.458.667-1.25 1.209v2.583h7.292q1.083 0 1.854.771.771.771.771 1.854v7.333h.875q1.083 0 1.854.771.771.771.771 1.854v8.834q0 .708-.479 1.166-.479.459-1.146.459Zm4.458-13.084h17.25V16h-17.25Zm-3.5 10.459h24.25v-7.834H7.875Zm3.5-10.459h17.25Zm-3.5 10.459h24.25Zm24.25-10.459H7.875h24.25Z"/></svg>